<svg width="22" height="25" viewBox="0 0 22 25" fill="none" xmlns="http://www.w3.org/2000/svg">
<path d="M18.2918 4.16663H3.7085C2.87969 4.16663 2.08484 4.49587 1.49879 5.08192C0.912736 5.66797 0.583496 6.46282 0.583496 7.29163V17.7083C0.583496 18.5371 0.912736 19.332 1.49879 19.918C2.08484 20.5041 2.87969 20.8333 3.7085 20.8333H18.2918C19.1206 20.8333 19.9155 20.5041 20.5015 19.918C21.0876 19.332 21.4168 18.5371 21.4168 17.7083V7.29163C21.4168 6.46282 21.0876 5.66797 20.5015 5.08192C19.9155 4.49587 19.1206 4.16663 18.2918 4.16663ZM17.8647 6.24996L11.7397 12.375C11.6429 12.4726 11.5277 12.5501 11.4008 12.603C11.2738 12.6559 11.1377 12.6831 11.0002 12.6831C10.8627 12.6831 10.7265 12.6559 10.5996 12.603C10.4726 12.5501 10.3574 12.4726 10.2606 12.375L4.13558 6.24996H17.8647ZM19.3335 17.7083C19.3335 17.9846 19.2238 18.2495 19.0284 18.4449C18.8331 18.6402 18.5681 18.75 18.2918 18.75H3.7085C3.43223 18.75 3.16728 18.6402 2.97193 18.4449C2.77658 18.2495 2.66683 17.9846 2.66683 17.7083V7.71871L8.79183 13.8437C9.37777 14.4289 10.172 14.7576 11.0002 14.7576C11.8283 14.7576 12.6226 14.4289 13.2085 13.8437L19.3335 7.71871V17.7083Z" fill="#26262A"/>
</svg>
