<svg width="33" height="44" viewBox="0 0 33 44" fill="none" xmlns="http://www.w3.org/2000/svg">
<path fill-rule="evenodd" clip-rule="evenodd" d="M6.37552 1.94428C5.67183 1.73577 4.91138 1.81041 4.25611 2.15313C3.62657 2.54731 3.17772 3.16851 3.00372 3.88434C2.82964 4.60001 2.94601 5.35143 3.32793 5.97514C3.47164 6.2378 3.66081 6.47266 3.88741 6.66927C4.01179 6.78504 4.10389 6.93079 4.15556 7.09245C4.20732 7.25426 4.21743 7.42642 4.18316 7.59388C4.14891 7.73044 4.08812 7.85883 4.00264 7.97195C3.91873 8.08436 3.81112 8.17975 3.68935 8.25064L3.54056 8.33654L3.07925 8.60288C2.53373 8.91921 2.09241 9.38505 1.80799 9.94399C1.52349 10.5028 1.40935 11.1299 1.47711 11.7489C1.54644 12.3673 1.79728 12.9495 2.19687 13.4252C2.59638 13.9006 3.12977 14.2472 3.72949 14.4234C4.32922 14.5996 4.9705 14.5969 5.57266 14.4165C6.17631 14.2352 6.71398 13.8847 7.12224 13.4062C7.53059 12.9279 7.79031 12.3433 7.86951 11.7245C7.9502 11.1048 7.84635 10.4782 7.57075 9.92177C7.47875 9.69713 7.47097 9.44655 7.55172 9.21528C7.63091 8.98472 7.79371 8.78901 8.0065 8.66615C8.21929 8.5433 8.46867 8.50103 8.70942 8.54688C8.95009 8.59258 9.16321 8.7246 9.31175 8.9166C9.65246 9.50328 10.1638 9.97308 10.7789 10.2654C11.3956 10.5568 12.0868 10.6577 12.7665 10.5532C13.4447 10.4495 14.0789 10.146 14.5867 9.68182C15.0945 9.21768 15.4525 8.61433 15.6131 7.95086C15.7751 7.28652 15.7317 6.59274 15.4905 5.95841C15.2492 5.32408 14.8211 4.77832 14.2609 4.39228C13.7007 4.00624 13.0346 3.79756 12.3494 3.79294C11.6642 3.78818 10.9902 3.98855 10.4153 4.3674L9.95402 4.63373L9.80521 4.71965C9.55574 4.85801 9.26277 4.89355 8.98954 4.81892C8.82925 4.76124 8.68671 4.66554 8.57288 4.54055C8.46053 4.41469 8.37789 4.26466 8.33667 4.10049C8.27821 3.8068 8.16941 3.52555 8.01528 3.2689C7.66745 2.62863 7.07764 2.15349 6.37552 1.94428ZM2.51035 2.58304C2.82516 2.06641 3.25453 1.628 3.76485 1.30226L3.72251 1.22891C4.26116 0.955671 4.85311 0.809118 5.45447 0.799141C6.05592 0.789311 6.64948 0.91704 7.19123 1.17151C7.73149 1.42684 8.20448 1.80277 8.5719 2.27075C8.94088 2.73803 9.19343 3.28543 9.31395 3.86877C9.50752 3.73667 9.71139 3.61897 9.92406 3.51653C10.6395 3.1062 11.4571 2.91057 12.2774 2.95336C13.0976 2.996 13.8855 3.27479 14.5427 3.75663C15.1999 4.23861 15.6998 4.90177 15.9801 5.66555C16.2605 6.42948 16.3097 7.26053 16.1226 8.0567C15.934 8.85373 15.5169 9.58156 14.9215 10.1517C14.326 10.7217 13.5778 11.1096 12.7697 11.2667C11.9617 11.4239 11.1265 11.3449 10.3683 11.0386C10.297 11.0097 10.2267 10.9789 10.1575 10.9462L10.6987 11.4221L12.5443 12.6255L12.2229 13.9255L12.64 13.6847C12.8691 13.5524 13.1396 13.5158 13.3939 13.5817C13.6483 13.6477 13.864 13.8117 13.9943 14.0373C14.1245 14.2629 14.1588 14.5319 14.0886 14.785C14.0186 15.0382 13.8516 15.2542 13.6225 15.3865L13.1761 15.6442L24.9744 36.0794L25.8523 35.5726L24.3701 33.0054L24.8016 32.7562C24.8582 32.7236 24.9211 32.702 24.9855 32.6933C25.05 32.6847 25.1157 32.6886 25.1787 32.7048C25.2416 32.7211 25.3 32.75 25.3521 32.7887C25.4028 32.8284 25.4466 32.8768 25.4788 32.9325C25.544 33.0455 25.6511 33.1278 25.779 33.1604C25.9054 33.1938 26.0414 33.175 26.156 33.1088C26.2705 33.0427 26.3548 32.9344 26.3891 32.8082C26.4234 32.682 26.4071 32.5472 26.3419 32.4342C26.3097 32.3785 26.2882 32.3172 26.2807 32.2526C26.2732 32.1881 26.2773 32.1231 26.2947 32.0605C26.3121 31.9978 26.3416 31.9389 26.3813 31.8874C26.421 31.836 26.4712 31.7923 26.5278 31.7597L27.3908 31.2614C27.5054 31.1952 27.6415 31.1765 27.7679 31.2099C27.8943 31.2434 28.0029 31.3248 28.068 31.4377L28.3221 31.8778L28.7536 31.6286C28.8682 31.5625 29.0042 31.5438 29.1307 31.5772C29.2571 31.6106 29.3656 31.6921 29.4308 31.8049L29.6764 32.2304C29.7416 32.3433 29.7579 32.4781 29.7236 32.6043C29.6894 32.7305 29.6052 32.8389 29.4906 32.9051L28.196 33.6525C28.0814 33.7187 27.9971 33.827 27.9629 33.9532C27.9271 34.0802 27.9449 34.2141 28.01 34.3269C28.0752 34.4399 28.1823 34.5223 28.3102 34.5548C28.4366 34.5882 28.5726 34.5694 28.6872 34.5032L29.9818 33.7558C30.0963 33.6896 30.2324 33.671 30.3588 33.7044C30.4852 33.7378 30.5938 33.8193 30.6589 33.9321L31.1502 34.783C31.1843 34.8386 31.2078 34.8999 31.2173 34.9646C31.2268 35.0292 31.2216 35.0958 31.2045 35.1589C31.1873 35.222 31.1563 35.2815 31.1162 35.3323C31.0745 35.3839 31.022 35.427 30.9643 35.4576L29.6697 36.205C29.5551 36.2711 29.4709 36.3796 29.4366 36.5058C29.4008 36.6329 29.4186 36.7668 29.4838 36.8796C29.5134 36.9378 29.5562 36.9879 29.6075 37.0286C29.6586 37.0691 29.7189 37.0979 29.7821 37.1146C29.8453 37.1313 29.911 37.135 29.9765 37.1248C30.042 37.1145 30.1042 37.0916 30.161 37.056L31.4556 36.3086C31.5135 36.2749 31.5767 36.2537 31.6431 36.2451C31.7096 36.2364 31.7776 36.2408 31.8415 36.2587C31.9054 36.2766 31.9646 36.3071 32.0163 36.3485C32.0679 36.3897 32.1097 36.4415 32.1411 36.4994L32.3868 36.9248C32.452 37.0378 32.4683 37.1725 32.434 37.2987C32.3997 37.4249 32.3154 37.5332 32.2009 37.5994L31.7693 37.8485L32.0065 38.2593C32.0717 38.3723 32.088 38.507 32.0537 38.6332C32.0194 38.7594 31.9352 38.8677 31.8206 38.9339L30.9575 39.4322C30.8429 39.4983 30.707 39.5172 30.5805 39.4838C30.4526 39.4512 30.3456 39.3689 30.2804 39.2559C30.2152 39.1431 30.1067 39.0616 29.9802 39.0282C29.8538 38.9948 29.7178 39.0135 29.6032 39.0796C29.4886 39.1458 29.4044 39.2542 29.3701 39.3804C29.3344 39.5075 29.3522 39.6414 29.4173 39.7542C29.4825 39.8671 29.4988 40.0019 29.4645 40.1281C29.4302 40.2543 29.3459 40.3626 29.2314 40.4288L28.7998 40.6779L27.3176 38.1105L26.4397 38.6174L27.6682 40.7451C27.7296 40.8618 27.7445 40.9976 27.707 41.1251C27.6727 41.2416 27.5978 41.3425 27.4965 41.4102L27.8509 42.0239C27.9372 42.0234 28.0235 42.0341 28.1074 42.0558C28.2333 42.0884 28.3515 42.1453 28.4542 42.2235C28.557 42.3019 28.6432 42.3996 28.7077 42.5114C28.8049 42.6797 28.8493 42.8735 28.8348 43.0683C28.8204 43.2632 28.7494 43.4497 28.6289 43.6052C28.5083 43.7606 28.3439 43.8779 28.1584 43.9414C27.9712 44.0056 27.7711 44.0129 27.5819 43.9636C27.3927 43.9142 27.2219 43.8108 27.0938 43.6646C26.9657 43.5183 26.8833 43.3378 26.859 43.1445C26.8348 42.9513 26.8682 42.7549 26.9571 42.5789C26.9667 42.5596 26.977 42.5407 26.9878 42.5221L26.634 41.9094L26.6192 41.918C26.5046 41.9842 26.3686 42.0028 26.2421 41.9694C26.1142 41.9369 26.0072 41.8545 25.942 41.7417L11.45 16.6407L11.0333 16.8813C10.8041 17.0136 10.5336 17.0503 10.2793 16.9843C10.025 16.9185 9.80921 16.7544 9.67894 16.5288C9.54868 16.3031 9.51451 16.0343 9.58456 15.7811C9.6546 15.5278 9.8216 15.3119 10.0508 15.1796L10.4663 14.9397L9.09205 14.6187L8.97872 12.5311C8.83972 13.2322 8.53087 13.8941 8.07659 14.4578C7.5205 15.1476 6.77035 15.6593 5.92459 15.9264C5.07873 16.1933 4.17431 16.2042 3.3275 15.9574C2.48219 15.7098 1.73294 15.2162 1.17739 14.5392C0.621915 13.8623 0.28434 13.0336 0.209839 12.1588C0.133851 11.2849 0.324176 10.405 0.756896 9.63209C1.18804 8.85993 1.84058 8.23067 2.63034 7.82536C2.82391 7.69326 3.02778 7.57555 3.24045 7.47311C2.79038 7.07847 2.44132 6.58385 2.21847 6.02947C1.99553 5.47494 1.90528 4.8753 1.95667 4.27701C2.00798 3.67858 2.19713 3.09895 2.51035 2.58304Z" fill="url(#paint0_linear_148_6127)"/>
<defs>
<linearGradient id="paint0_linear_148_6127" x1="4" y1="1.5" x2="1.64561" y2="40.7072" gradientUnits="userSpaceOnUse">
<stop stop-color="#FFF2A3"/>
<stop offset="0.330355" stop-color="#B68012"/>
<stop offset="0.663692" stop-color="#F7DB77"/>
<stop offset="1" stop-color="#BA8417"/>
</linearGradient>
</defs>
</svg>
