<svg width="19" height="25" viewBox="0 0 19 25" fill="none" xmlns="http://www.w3.org/2000/svg">
<path d="M9.49984 2.08337C7.2897 2.08337 5.17008 2.96135 3.60728 4.52415C2.04448 6.08695 1.1665 8.20657 1.1665 10.4167C1.1665 16.0417 8.51025 22.3959 8.82275 22.6667C9.01143 22.8281 9.25155 22.9168 9.49984 22.9168C9.74812 22.9168 9.98824 22.8281 10.1769 22.6667C10.5415 22.3959 17.8332 16.0417 17.8332 10.4167C17.8332 8.20657 16.9552 6.08695 15.3924 4.52415C13.8296 2.96135 11.71 2.08337 9.49984 2.08337ZM9.49984 20.4688C7.28109 18.3855 3.24984 13.8959 3.24984 10.4167C3.24984 8.7591 3.90832 7.16939 5.08042 5.99729C6.25252 4.82519 7.84223 4.16671 9.49984 4.16671C11.1574 4.16671 12.7472 4.82519 13.9193 5.99729C15.0914 7.16939 15.7498 8.7591 15.7498 10.4167C15.7498 13.8959 11.7186 18.3959 9.49984 20.4688ZM9.49984 6.25004C8.67575 6.25004 7.87017 6.49441 7.18496 6.95225C6.49976 7.41009 5.9657 8.06083 5.65034 8.82219C5.33497 9.58355 5.25246 10.4213 5.41323 11.2296C5.574 12.0378 5.97084 12.7803 6.55356 13.363C7.13628 13.9457 7.87871 14.3425 8.68696 14.5033C9.49521 14.6641 10.333 14.5816 11.0944 14.2662C11.8557 13.9508 12.5065 13.4168 12.9643 12.7316C13.4221 12.0464 13.6665 11.2408 13.6665 10.4167C13.6665 9.31164 13.2275 8.25183 12.4461 7.47043C11.6647 6.68903 10.6049 6.25004 9.49984 6.25004ZM9.49984 12.5C9.08779 12.5 8.685 12.3779 8.3424 12.1489C7.9998 11.92 7.73277 11.5946 7.57509 11.214C7.41741 10.8333 7.37615 10.4144 7.45653 10.0103C7.53692 9.60614 7.73534 9.23493 8.0267 8.94357C8.31806 8.65221 8.68927 8.45379 9.0934 8.3734C9.49753 8.29302 9.91641 8.33428 10.2971 8.49196C10.6778 8.64964 11.0031 8.91667 11.2321 9.25927C11.461 9.60187 11.5832 10.0047 11.5832 10.4167C11.5832 10.9692 11.3637 11.4991 10.973 11.8898C10.5823 12.2805 10.0524 12.5 9.49984 12.5Z" fill="#26262A"/>
</svg>
