<?xml version="1.0" encoding="UTF-8"?> <svg xmlns="http://www.w3.org/2000/svg" width="214" height="72" viewBox="0 0 214 72" fill="none"><g clip-path="url(#clip0_82_2747)"><path d="M44.94 34.5684L41.5432 26.9749H30.3421L26.7925 34.5684H25.9433L38.2143 8.17957L49.8909 34.5684H44.94ZM30.7073 26.1963H41.229L36.1337 14.6344L30.7073 26.1963Z" fill="white"></path><path d="M62.7904 34.8026C60.9711 34.7987 59.1735 34.4135 57.5168 33.6724C55.9235 33.0311 54.5996 31.8735 53.7633 30.3906L54.2474 29.7543C55.0257 31.1807 56.2795 32.2986 57.7971 32.9189C59.3632 33.6302 61.0661 34.0014 62.7904 34.0073C64.3433 34.0959 65.8785 33.6456 67.1298 32.7347C67.66 32.3031 68.0799 31.7547 68.3558 31.1337C68.6316 30.5129 68.7556 29.8367 68.7179 29.1599C68.7041 28.5396 68.5507 27.9302 68.2686 27.3757C67.9867 26.8212 67.5832 26.3354 67.0874 25.9533C65.5468 24.753 63.8283 23.793 61.9921 23.1068C60.3686 22.4527 58.7863 21.7035 57.2536 20.8631C56.2173 20.3142 55.3202 19.5415 54.6295 18.6026C54.0066 17.6793 53.6892 16.5883 53.7209 15.4799C53.6858 14.0659 54.118 12.679 54.9522 11.5282C55.7912 10.4077 56.9288 9.53826 58.2387 9.0166C59.6581 8.44344 61.1802 8.15871 62.714 8.1794C64.5106 8.17224 66.2823 8.59456 67.8771 9.41009C69.3704 10.1257 70.5866 11.3013 71.3419 12.7589L70.8154 13.3952C70.1084 11.9865 68.9463 10.8496 67.512 10.1636C66.0584 9.39962 64.4376 8.99734 62.7904 8.99148C61.2383 8.89018 59.6919 9.25822 58.3575 10.0464C57.8301 10.4114 57.4054 10.9024 57.1232 11.4736C56.8409 12.0446 56.7105 12.677 56.7441 13.3115C56.7311 14.085 56.9958 14.8381 57.4914 15.438C58.057 16.0828 58.7432 16.6144 59.5125 17.0036C60.3617 17.4557 61.627 18.0668 63.3169 18.8371L64.5398 19.4231C66.6351 20.2782 68.5853 21.4442 70.3229 22.8808C70.9248 23.4163 71.4025 24.0733 71.7234 24.8073C72.0444 25.5412 72.201 26.3348 72.1826 27.1338C72.1949 28.5153 71.7931 29.8696 71.0277 31.0268C70.2208 32.2274 69.092 33.1837 67.7668 33.7896C66.2053 34.498 64.5002 34.8445 62.7819 34.8026" fill="white"></path><path d="M95.7735 8.41382V9.20917H87.8249V34.5682H83.2732V9.20917H75.3331V8.41382H95.7735Z" fill="white"></path><path d="M117.42 9.20917H105.2V21.0892H114.397V21.8845H105.2V33.7729H117.42V34.5682H100.648V8.41382H117.42V9.20917Z" fill="white"></path><path d="M143.516 34.5683H138.837L137.665 28.959C137.383 27.3118 136.698 25.7572 135.669 24.4297C135.285 23.9201 134.793 23.4994 134.226 23.1972C133.661 22.8949 133.034 22.7184 132.391 22.68H127.627V34.5683H123.135V8.41393H134.744C136.421 8.36141 138.085 8.72411 139.584 9.46881C140.801 10.0749 141.815 11.0138 142.505 12.173C143.112 13.1886 143.44 14.343 143.456 15.5218C143.435 17.0833 142.872 18.5904 141.86 19.7916C140.685 21.1995 139.031 22.1396 137.206 22.4372C138.444 22.8197 139.558 23.5188 140.433 24.4632C141.234 25.2638 141.79 26.2706 142.038 27.3683L143.516 34.5683ZM127.653 21.8846H133.385C134.327 21.873 135.245 21.5812 136.017 21.0474C136.89 20.4599 137.6 19.6653 138.081 18.7367C138.607 17.7305 138.876 16.6122 138.862 15.48C138.873 14.3667 138.605 13.2681 138.081 12.2818C137.594 11.3775 136.885 10.6087 136.017 10.0465C135.242 9.51913 134.327 9.22803 133.385 9.20927H127.653V21.8846Z" fill="white"></path><path d="M154.539 8.41382H149.987V34.5682H154.539V8.41382Z" fill="white"></path><path d="M180.643 9.98788C182.675 11.1649 184.364 12.8408 185.543 14.8521C186.734 16.8678 187.36 19.1586 187.36 21.4911C187.36 23.8236 186.734 26.1145 185.543 28.1302C184.361 30.1397 182.674 31.8149 180.643 32.9944C178.618 34.1925 176.297 34.8182 173.934 34.8028C171.575 34.8185 169.257 34.2022 167.226 33.0195C165.19 31.8503 163.501 30.1762 162.326 28.1637C161.135 26.1342 160.508 23.8313 160.508 21.487C160.508 19.1426 161.135 16.8396 162.326 14.8102C163.504 12.802 165.193 11.1312 167.226 9.96277C169.257 8.78013 171.575 8.16373 173.934 8.17949C176.297 8.16408 178.618 8.78967 180.643 9.98788ZM181.492 28.6242C182.217 27.0279 182.579 24.6502 182.579 21.4911C182.579 18.3321 182.214 15.9543 181.484 14.3581C180.812 12.8214 179.761 11.4746 178.427 10.44C177.123 9.48254 175.534 8.97896 173.909 9.00835C172.283 8.96925 170.69 9.47384 169.391 10.44C168.038 11.4624 166.977 12.812 166.309 14.3581C165.595 15.9599 165.239 18.3376 165.239 21.4911C165.239 24.6447 165.595 27.0222 166.309 28.6242C166.977 30.1702 168.038 31.5198 169.391 32.5423C170.685 33.5222 172.278 34.0389 173.909 34.0074C175.539 34.029 177.128 33.5134 178.427 32.5423C179.761 31.5077 180.812 30.1609 181.484 28.6242" fill="white"></path><path d="M73.312 43.4846V65.453H71.8344V61.8111C71.2591 62.9708 70.353 63.9398 69.2273 64.599C68.0627 65.2655 66.7351 65.6043 65.3889 65.5786C63.999 65.5956 62.6297 65.2458 61.4231 64.5656C60.2561 63.908 59.2954 62.9463 58.6462 61.786C57.9824 60.5311 57.6357 59.1368 57.6357 57.7214C57.6357 56.3061 57.9824 54.9117 58.6462 53.6567C59.2881 52.4911 60.2506 51.5277 61.4231 50.8772C62.6328 50.2062 64.0009 49.8626 65.3889 49.8809C66.7104 49.8596 68.0122 50.1986 69.1509 50.8604C70.2731 51.5101 71.1925 52.4514 71.8089 53.5814V43.4846H73.312ZM68.7263 63.4102C69.6768 62.8623 70.4577 62.0692 70.9851 61.1162C71.5263 60.0717 71.8085 58.9153 71.8085 57.7423C71.8085 56.5693 71.5263 55.413 70.9851 54.3683C70.4603 53.4093 69.679 52.6102 68.7263 52.0576C67.74 51.5144 66.6291 51.2291 65.4993 51.2291C64.3695 51.2291 63.2585 51.5144 62.2723 52.0576C61.322 52.6107 60.5437 53.4099 60.0219 54.3683C59.4807 55.413 59.1985 56.5693 59.1985 57.7423C59.1985 58.9153 59.4807 60.0717 60.0219 61.1162C60.5437 62.0748 61.322 62.874 62.2723 63.4269C63.2585 63.9703 64.3695 64.2555 65.4993 64.2555C66.6291 64.2555 67.74 63.9703 68.7263 63.4269" fill="white"></path><path d="M92.8862 58.0857H79.4094C79.4251 59.2191 79.7444 60.3281 80.335 61.3006C80.902 62.2258 81.7196 62.9767 82.6958 63.469C83.7288 63.9958 84.8788 64.2606 86.0416 64.2392C87.0148 64.2514 87.9803 64.0662 88.8779 63.695C89.7297 63.3428 90.4795 62.7876 91.0604 62.0792L91.9096 63.0587C91.2252 63.8737 90.3513 64.5141 89.362 64.9257C88.1578 65.4111 86.8594 65.6305 85.5592 65.5683C84.2597 65.5061 82.9894 65.1639 81.8381 64.5657C80.644 63.9151 79.6539 62.9536 78.9763 61.7862C78.2774 60.5598 77.9172 59.1741 77.9318 57.7676C77.9113 56.3632 78.247 54.9762 78.9083 53.7322C79.5274 52.5714 80.4588 51.601 81.6003 50.9276C82.7658 50.2767 84.0823 49.9346 85.4217 49.9346C86.7609 49.9346 88.078 50.2767 89.2431 50.9276C90.3742 51.5903 91.299 52.5458 91.9181 53.6904C92.5839 54.9297 92.9193 56.3152 92.8947 57.7174L92.8862 58.0857ZM82.4665 51.9071C81.5892 52.3895 80.8591 53.095 80.352 53.9499C79.8088 54.8567 79.4942 55.8788 79.4349 56.9304H91.451C91.4069 55.8838 91.0978 54.8649 90.5509 53.9667C90.0269 53.1115 89.2907 52.4026 88.4109 51.9071C87.5039 51.4066 86.4781 51.1524 85.4387 51.1704C84.4019 51.1569 83.3789 51.4048 82.4665 51.8904" fill="white"></path><path d="M97.939 65.0092C96.9598 64.7368 96.0486 64.2663 95.264 63.6278L95.9518 62.439C96.6906 63.0262 97.5305 63.4772 98.4315 63.7701C99.4472 64.13 100.52 64.3113 101.599 64.3059C102.817 64.3925 104.033 64.1247 105.098 63.5357C105.455 63.305 105.747 62.9875 105.945 62.6137C106.143 62.2399 106.24 61.8222 106.227 61.4008C106.241 61.1153 106.192 60.8303 106.085 60.5646C105.979 60.299 105.815 60.0589 105.607 59.8604C105.17 59.473 104.651 59.1869 104.087 59.0231C103.493 58.8473 102.661 58.6631 101.599 58.4622C100.581 58.3047 99.5762 58.0724 98.5929 57.7673C97.8473 57.5208 97.1764 57.0949 96.6397 56.5283C96.0554 55.8771 95.7506 55.0274 95.7905 54.159C95.782 53.5557 95.9213 52.9594 96.1981 52.4213C96.4749 51.8832 96.88 51.4194 97.3785 51.0697C98.6684 50.1978 100.217 49.7763 101.777 49.8724C102.783 49.8741 103.783 50.015 104.75 50.2911C105.612 50.5082 106.427 50.88 107.153 51.3878L106.465 52.5683C105.799 52.1035 105.058 51.7526 104.274 51.5301C103.446 51.2939 102.588 51.1755 101.726 51.1785C100.564 51.1135 99.4098 51.406 98.423 52.0157C98.0765 52.2486 97.7938 52.5622 97.5993 52.9288C97.4057 53.2955 97.3063 53.7036 97.3106 54.1171C97.2936 54.4149 97.3403 54.7129 97.449 54.9914C97.5577 55.2699 97.7241 55.5227 97.939 55.7329C98.3857 56.1202 98.913 56.406 99.4845 56.5701C100.096 56.7543 100.945 56.9552 102.032 57.1729C103.032 57.3406 104.018 57.5728 104.987 57.8678C105.716 58.1021 106.371 58.5173 106.89 59.0734C107.442 59.7025 107.723 60.52 107.671 61.3506C107.696 61.9581 107.566 62.5622 107.291 63.1067C107.016 63.6512 106.607 64.1184 106.1 64.465C104.741 65.3136 103.145 65.7179 101.54 65.6204C100.316 65.6253 99.0998 65.433 97.939 65.0511" fill="white"></path><path d="M133.877 49.9982V63.7954C133.877 66.3628 133.249 68.2577 131.992 69.48C130.735 70.7024 128.833 71.3163 126.285 71.3219C124.897 71.3304 123.516 71.1097 122.201 70.6689C121.044 70.307 119.986 69.6883 119.11 68.8605L119.959 67.7387C120.776 68.4772 121.735 69.0465 122.778 69.4131C123.907 69.8092 125.097 70.0076 126.294 69.9991C128.377 69.9991 129.92 69.5107 130.922 68.534C131.924 67.5572 132.425 66.0446 132.425 63.9963V61.3675C131.805 62.4726 130.877 63.3792 129.75 63.9796C128.567 64.6003 127.243 64.9143 125.903 64.8921C124.517 64.9118 123.149 64.5803 121.929 63.9293C120.756 63.3137 119.782 62.3853 119.118 61.2503C118.45 60.0646 118.099 58.7304 118.099 57.374C118.099 56.0175 118.45 54.6834 119.118 53.4977C119.782 52.3651 120.756 51.4397 121.929 50.827C123.153 50.1891 124.519 49.8638 125.903 49.881C127.266 49.8627 128.611 50.1884 129.81 50.827C130.946 51.4389 131.873 52.368 132.476 53.4977V49.9982H133.877ZM129.283 62.7907C130.263 62.2944 131.077 61.5299 131.627 60.5889C132.198 59.6117 132.491 58.5013 132.476 57.374C132.491 56.2518 132.199 55.1465 131.627 54.1759C131.081 53.2531 130.284 52.4991 129.326 51.9991C128.307 51.4821 127.177 51.2124 126.031 51.2124C124.884 51.2124 123.755 51.4821 122.736 51.9991C121.786 52.5045 120.996 53.2575 120.451 54.1759C119.884 55.1481 119.591 56.2523 119.602 57.374C119.592 58.5008 119.885 59.6101 120.451 60.5889C120.977 61.5138 121.753 62.2762 122.693 62.7907C123.712 63.3077 124.842 63.5775 125.988 63.5775C127.135 63.5775 128.264 63.3077 129.283 62.7907Z" fill="white"></path><path d="M152.56 51.5722C153.161 52.2266 153.621 52.9942 153.913 53.8288C154.205 54.6633 154.322 55.5475 154.258 56.428V65.4531H152.772V56.5452C152.871 55.1014 152.393 53.6769 151.439 52.5768C150.944 52.1072 150.355 51.7435 149.711 51.5087C149.066 51.2739 148.38 51.1729 147.694 51.2122C146.894 51.169 146.093 51.292 145.344 51.5732C144.595 51.8545 143.914 52.2876 143.346 52.8447C142.798 53.4333 142.375 54.1238 142.1 54.8755C141.827 55.6273 141.707 56.4255 141.75 57.2233V65.4531H140.246V49.9982H141.69V53.347C142.222 52.2886 143.065 51.4131 144.11 50.8354C145.269 50.2003 146.58 49.8823 147.906 49.9145C148.756 49.8672 149.608 49.9912 150.408 50.2792C151.208 50.5671 151.94 51.0127 152.56 51.5889" fill="white"></path><path d="M213.465 0H212.454V65.453H213.465V0Z" fill="white"></path><path d="M1.01056 0H0V65.453H1.01056V0Z" fill="white"></path><path d="M112.715 43.2251C113.08 43.2403 113.424 43.3963 113.674 43.6594C113.923 43.9225 114.058 44.2716 114.048 44.6316C114.051 44.7795 114.028 44.9268 113.98 45.0669C113.958 45.1474 113.956 45.232 113.973 45.3137C113.991 45.3953 114.028 45.4715 114.082 45.5358C114.181 45.6352 114.315 45.6924 114.456 45.6948H114.541H114.804C115.144 45.6748 115.482 45.7555 115.774 45.9269C116.066 46.0982 116.3 46.3521 116.444 46.6558C116.588 46.9594 116.637 47.2989 116.583 47.63C116.53 47.9611 116.377 48.2688 116.143 48.5131C115.911 48.7574 115.608 48.9271 115.276 49.0003C114.944 49.0735 114.598 49.0467 114.282 48.9235C113.965 48.8002 113.694 48.5862 113.502 48.3091C113.311 48.032 113.209 47.7046 113.208 47.3693C113.192 47.2504 113.133 47.1412 113.041 47.0622C112.95 46.9831 112.832 46.9395 112.711 46.9395C112.589 46.9395 112.471 46.9831 112.381 47.0622C112.289 47.1412 112.23 47.2504 112.214 47.3693C112.195 47.6755 112.084 47.9694 111.897 48.2147C111.71 48.46 111.454 48.646 111.161 48.7498C110.868 48.8537 110.551 48.8709 110.248 48.7993C109.946 48.7277 109.671 48.5704 109.458 48.3468C109.244 48.1232 109.102 47.843 109.048 47.5408C108.995 47.2385 109.031 46.9273 109.154 46.6455C109.278 46.3638 109.482 46.1236 109.742 45.9547C110.002 45.7858 110.306 45.6954 110.618 45.6948H110.881H110.966C111.035 45.6946 111.105 45.6804 111.169 45.653C111.233 45.6257 111.291 45.5858 111.339 45.5358C111.395 45.4726 111.434 45.3964 111.452 45.3143C111.469 45.2324 111.466 45.1472 111.441 45.0669C111.393 44.9268 111.37 44.7795 111.373 44.6316C111.364 44.2702 111.5 43.9199 111.751 43.6566C112.003 43.3932 112.348 43.2382 112.715 43.2251ZM112.715 42.7395C112.416 42.7528 112.124 42.8343 111.862 42.9777C111.6 43.1211 111.376 43.3224 111.206 43.5659C111.036 43.8093 110.927 44.0882 110.885 44.3807C110.844 44.673 110.871 44.971 110.966 45.2511C110.849 45.2424 110.733 45.2424 110.618 45.2511C110.179 45.2294 109.745 45.3375 109.369 45.5615C108.993 45.7853 108.694 46.115 108.511 46.5078C108.326 46.9006 108.266 47.3387 108.337 47.7657C108.407 48.1927 108.606 48.5892 108.906 48.904C109.208 49.2189 109.598 49.4378 110.026 49.5325C110.454 49.6272 110.901 49.5936 111.31 49.4357C111.718 49.2778 112.07 49.0032 112.319 48.6468C112.567 48.2905 112.702 47.8689 112.707 47.4362C112.738 47.837 112.888 48.22 113.136 48.5386C113.384 48.8571 113.722 49.0973 114.107 49.2296C114.492 49.3621 114.908 49.381 115.304 49.2841C115.699 49.1873 116.058 48.9788 116.335 48.6843C116.612 48.3897 116.796 48.0219 116.865 47.6256C116.934 47.2294 116.884 46.8221 116.722 46.4534C116.56 46.0847 116.291 45.7707 115.951 45.5498C115.61 45.3287 115.212 45.2104 114.804 45.2093C114.688 45.2006 114.572 45.2006 114.456 45.2093C114.549 44.9298 114.576 44.6331 114.533 44.3419C114.492 44.0508 114.382 43.773 114.214 43.5302C114.045 43.2874 113.823 43.0861 113.563 42.9417C113.303 42.7973 113.013 42.7138 112.715 42.6976" fill="white"></path><path d="M112.944 65.7713H112.46C112.395 65.7713 112.332 65.7457 112.286 65.7001C112.24 65.6546 112.214 65.5929 112.214 65.5285V50.1741H113.199V65.5285C113.197 65.5936 113.169 65.6554 113.122 65.7007C113.074 65.746 113.011 65.7713 112.944 65.7713Z" fill="white"></path><path d="M113.454 51.2037H111.976C111.846 51.2037 111.721 51.1526 111.628 51.0615C111.536 50.9705 111.484 50.8469 111.484 50.7181C111.484 50.5894 111.536 50.4659 111.628 50.3748C111.721 50.2837 111.846 50.2325 111.976 50.2325H113.454C113.585 50.2325 113.71 50.2837 113.802 50.3748C113.895 50.4659 113.946 50.5894 113.946 50.7181C113.946 50.8469 113.895 50.9705 113.802 51.0615C113.71 51.1526 113.585 51.2037 113.454 51.2037Z" fill="white"></path><path d="M112.223 50.2411L111.705 49.7555L112.197 48.7844L112.443 48.056V47.0848H112.69H112.936V48.056L113.182 48.7844L113.675 49.7555L113.208 50.2411H112.936H112.69H112.443" fill="white"></path><path d="M112.961 65.2352H112.469V66.2064H112.961V65.2352Z" fill="white"></path><path d="M113.208 66.5414C113.208 66.6374 113.179 66.7313 113.124 66.8111C113.07 66.891 112.994 66.9533 112.904 66.99C112.814 67.0268 112.714 67.0363 112.619 67.0177C112.523 66.9989 112.436 66.9526 112.367 66.8847C112.298 66.8168 112.251 66.7303 112.232 66.6361C112.213 66.5419 112.223 66.4442 112.26 66.3555C112.297 66.2668 112.36 66.191 112.442 66.1377C112.522 66.0843 112.618 66.0558 112.715 66.0558C112.78 66.0558 112.843 66.0683 112.904 66.0928C112.963 66.1172 113.017 66.1529 113.063 66.198C113.109 66.2431 113.146 66.2966 113.17 66.3555C113.195 66.4144 113.208 66.4776 113.208 66.5414Z" fill="white"></path><path d="M113.93 62.8658H113.191V64.3142H113.93V62.8658Z" fill="white"></path><path d="M115.67 61.6435C115.67 61.5792 115.644 61.5175 115.598 61.4719C115.552 61.4264 115.49 61.4008 115.424 61.4008H114.932C114.899 61.4008 114.867 61.407 114.837 61.4193C114.808 61.4315 114.78 61.4494 114.757 61.4719C114.735 61.4944 114.717 61.5212 114.704 61.5507C114.691 61.5802 114.685 61.6117 114.685 61.6435C114.685 61.708 114.659 61.7697 114.613 61.8153C114.567 61.8608 114.504 61.8863 114.439 61.8863C114.374 61.8863 114.311 61.8608 114.265 61.8153C114.218 61.7697 114.193 61.708 114.193 61.6435C114.193 61.6117 114.186 61.5802 114.174 61.5507C114.161 61.5212 114.144 61.4944 114.121 61.4719C114.098 61.4494 114.07 61.4315 114.041 61.4193C114.011 61.407 113.979 61.4008 113.946 61.4008H113.7V65.7794H113.946C114.012 65.7794 114.075 65.7538 114.121 65.7083C114.166 65.6627 114.193 65.601 114.193 65.5366C114.193 65.4722 114.218 65.4105 114.265 65.3649C114.311 65.3194 114.374 65.2938 114.439 65.2938C114.504 65.2938 114.567 65.3194 114.613 65.3649C114.659 65.4105 114.685 65.4722 114.685 65.5366C114.685 65.601 114.711 65.6627 114.757 65.7083C114.803 65.7538 114.866 65.7794 114.932 65.7794H115.424C115.49 65.7794 115.552 65.7538 115.598 65.7083C115.644 65.6627 115.67 65.601 115.67 65.5366V65.3022H115.917C115.982 65.3022 116.045 65.2766 116.091 65.2311C116.137 65.1855 116.163 65.1238 116.163 65.0594V64.8166C116.164 64.784 116.159 64.7515 116.147 64.7211C116.135 64.6907 116.117 64.6629 116.094 64.6395C116.071 64.6161 116.043 64.5974 116.013 64.5847C115.982 64.5719 115.95 64.5654 115.917 64.5655H115.178C115.145 64.5667 115.112 64.5611 115.082 64.5493C115.051 64.5375 115.024 64.5197 115.001 64.4969C114.978 64.4742 114.96 64.4469 114.948 64.417C114.936 64.3869 114.93 64.3549 114.932 64.3226C114.932 64.2582 114.957 64.1965 115.004 64.151C115.05 64.1054 115.112 64.0798 115.178 64.0798H115.917C115.949 64.081 115.982 64.0756 116.013 64.0638C116.042 64.0519 116.07 64.0341 116.093 64.0113C116.116 63.9886 116.135 63.9614 116.147 63.9314C116.159 63.9013 116.164 63.8693 116.163 63.837V63.3515C116.163 63.2871 116.137 63.2254 116.091 63.1798C116.045 63.1343 115.982 63.1087 115.917 63.1087H115.178C115.112 63.1087 115.05 63.0831 115.004 63.0376C114.957 62.992 114.932 62.9303 114.932 62.8659C114.932 62.8015 114.957 62.7398 115.004 62.6943C115.05 62.6487 115.112 62.6232 115.178 62.6232H115.917C115.982 62.6232 116.045 62.5975 116.091 62.552C116.137 62.5065 116.163 62.4448 116.163 62.3803V62.1375C116.163 62.0731 116.137 62.0114 116.091 61.9659C116.045 61.9203 115.982 61.8947 115.917 61.8947H115.67V61.6435Z" fill="white"></path></g><defs><clipPath id="clip0_82_2747"><rect width="214" height="72" fill="white"></rect></clipPath></defs></svg> 